<svg id="svg16" height="512" viewBox="0 0 24 24" width="512" xmlns="http://www.w3.org/2000/svg" xmlns:osb="http://www.openswatchbook.org/uri/2009/osb"><path id="path851" d="m8.0865067 2c-.18989146-.01681362-.39099893.02170898-.58201043.13085938l-6.9997496 4c-.32495272.18527247-.51935064.53640686-.50388823.91015625.01468018.34373316.20500507.65578858.50388823.82617188l6.9997496 4c.76500772.43781606 1.6811886-.25635914 1.4667444-1.1113281l-.31660159-1.270692a.3907077.3907077 128.00462 0 1 .37911724-.48516735h6.4665477c2.5088809 0 4.499839 1.9910294 4.499839 4.5s-1.9909581 4.5-4.499839 4.5h-7.4997317c-1.10453 0-1.9999285.8954305-1.9999285 2s.89539847 2 1.9999285 2h7.4997317c4.670564 0 8.499696-3.8292689 8.499696-8.5s-3.8291319-8.5-8.499696-8.5h-6.4685007a.39049669.39049669 52.010399 0 1 -.37886295-.48510392l.31830036-1.2746617c.1590673-.64055607-.31505961-1.1897935-.88473398-1.2402344z" font-feature-settings="normal" font-variant-alternates="normal" font-variant-caps="normal" font-variant-east-asian="normal" font-variant-ligatures="normal" font-variant-numeric="normal" font-variant-position="normal" font-variation-settings="normal" inline-size="0" isolation="auto" mix-blend-mode="normal" paint-order="fill markers stroke" shape-margin="0" shape-padding="0" solid-color="rgb(0,0,0)" text-decoration-color="rgb(0,0,0)" text-decoration-line="none" text-decoration-style="solid" text-indent="0" text-orientation="mixed" text-transform="none" white-space="normal"/></svg>